<?xml version="1.0" encoding="UTF-8" standalone="no"?>
<!-- Generator: Adobe Illustrator 16.0.0, SVG Export Plug-In . SVG Version: 6.00 Build 0)  -->

<svg
   xmlns:dc="http://purl.org/dc/elements/1.1/"
   xmlns:cc="http://creativecommons.org/ns#"
   xmlns:rdf="http://www.w3.org/1999/02/22-rdf-syntax-ns#"
   xmlns:svg="http://www.w3.org/2000/svg"
   xmlns="http://www.w3.org/2000/svg"
   xmlns:sodipodi="http://sodipodi.sourceforge.net/DTD/sodipodi-0.dtd"
   xmlns:inkscape="http://www.inkscape.org/namespaces/inkscape"
   version="1.1"
   id="Layer_1"
   x="0px"
   y="0px"
   width="168px"
   height="48px"
   viewBox="28 96.75 168 48"
   enable-background="new 28 96.75 168 48"
   xml:space="preserve"
   inkscape:version="0.91 r13725"
   sodipodi:docname="socials-icons..svg"><metadata
     id="metadata4891"><rdf:RDF><cc:Work
         rdf:about=""><dc:format>image/svg+xml</dc:format><dc:type
           rdf:resource="http://purl.org/dc/dcmitype/StillImage" /></cc:Work></rdf:RDF></metadata><defs
     id="defs4889" /><sodipodi:namedview
     pagecolor="#ffffff"
     bordercolor="#666666"
     borderopacity="1"
     objecttolerance="10"
     gridtolerance="10"
     guidetolerance="10"
     inkscape:pageopacity="0"
     inkscape:pageshadow="2"
     inkscape:window-width="1920"
     inkscape:window-height="1011"
     id="namedview4887"
     showgrid="false"
     inkscape:zoom="6.3302893"
     inkscape:cx="91.721277"
     inkscape:cy="17.242583"
     inkscape:window-x="1920"
     inkscape:window-y="0"
     inkscape:window-maximized="1"
     inkscape:current-layer="Layer_1"
     inkscape:snap-object-midpoints="true" /><g
     transform="matrix(0.1229735,0,0,0.12869047,103.12957,124.51375)"
     id="g4258"
     style="fill:#383838;fill-opacity:1"><rect
       height="62.915001"
       width="20.914"
       x="16.452"
       y="47.708"
       id="rect4260"
       style="fill:#383838;fill-opacity:1" /><path
       inkscape:connector-curvature="0"
       d="m 27.048,17.377 c -7.155,0 -11.838,4.695 -11.838,10.868 0,6.041 4.545,10.877 11.562,10.877 l 0.141,0 c 7.293,0 11.832,-4.836 11.832,-10.877 C 38.607,22.072 34.206,17.377 27.048,17.377 Z"
       id="path4262"
       style="fill:#383838;fill-opacity:1" /><path
       inkscape:connector-curvature="0"
       d="m 88.706,46.229 c -11.11,0 -16.075,6.116 -18.853,10.396 l 0,0.204 -0.135,0 c 0.039,-0.064 0.096,-0.138 0.135,-0.204 l 0,-8.917 -20.916,0 c 0.279,5.904 0,62.915 0,62.915 l 20.917,0 0,-35.137 c 0,-1.884 0.141,-3.754 0.693,-5.1 1.515,-3.761 4.954,-7.65 10.734,-7.65 7.569,0 10.597,5.772 10.597,14.227 l 0,33.661 20.914,0 0,-36.079 C 112.791,55.22 102.473,46.229 88.706,46.229 Z"
       id="path4264"
       style="fill:#383838;fill-opacity:1" /></g><path
     style="fill:#ffffff"
     inkscape:connector-curvature="0"
     id="path4859"
     d="m 46,105 c -0.45,0.225 -0.9,0.299 -1.425,0.375 0.524,-0.301 0.899,-0.75 1.05,-1.35 -0.45,0.299 -0.975,0.449 -1.575,0.6 -0.45,-0.451 -1.125,-0.75 -1.8,-0.75 -1.35,0 -2.475,1.125 -2.475,2.475 0,0.225 0,0.375 0.074,0.525 -2.024,-0.076 -3.824,-1.051 -5.1,-2.551 -0.225,0.375 -0.3,0.75 -0.3,1.275 0,0.824 0.45,1.574 1.125,2.025 -0.375,0 -0.75,-0.15 -1.125,-0.301 l 0,0 c 0,1.201 0.825,2.176 1.95,2.4 -0.301,0.225 -0.75,0.225 -1.125,0 0.3,0.975 1.199,1.725 2.324,1.725 -0.824,0.676 -1.875,1.051 -3.074,1.051 -0.226,0 -0.375,0 -0.601,0 1.125,0.674 2.4,1.125 3.75,1.125 4.5,0 6.976,-3.75 6.976,-6.975 0,-0.076 0,-0.227 0,-0.301 C 45.25,105.975 45.7,105.525 46,105 Z" /><path
     style="fill:#ffffff"
     inkscape:connector-curvature="0"
     id="path4861"
     d="m 86.5,108.75 0,6 2.25,0 0,-6 1.5,0 0.75,-2.25 -2.25,0 c 0,0 0,-0.375 0,-0.975 0,-0.227 0.15,-0.525 0.525,-0.525 0.75,0 2.175,0 1.725,0 l 0,-2.25 c 0,0 -1.2,0 -2.475,0 -1.275,0 -2.025,0.975 -2.025,2.1 0,1.125 0,1.725 0,1.725 l -1.5,0 0,2.25 1.5,0 0,-0.075 z" /><path
     style="fill:#ffffff"
     inkscape:connector-curvature="0"
     id="path4865"
     d="m 154.5,111.75 c -0.824,0 -1.5,0.674 -1.5,1.5 0,0.824 0.676,1.5 1.5,1.5 0.824,0 1.5,-0.676 1.5,-1.5 0.074,-0.75 -0.676,-1.5 -1.5,-1.5 z m -1.5,-4.951 0,2.326 c 3.15,0 5.625,2.699 5.625,5.625 l 2.324,0 c 0,-4.35 -3.599,-7.951 -7.949,-7.951 z m 0,-4.049 0,2.324 c 5.324,0 9.676,4.35 9.676,9.676 l 2.324,0 c 0,-6.6 -5.4,-12 -12,-12 z" /><path
     style="fill:#ffffff"
     inkscape:connector-curvature="0"
     id="path4867"
     d="m 65.1,109.574 c -0.449,0 -0.824,0.525 -0.824,1.201 0,0.674 0.375,1.199 0.824,1.199 0.45,0 0.825,-0.525 0.825,-1.199 0,-0.675 -0.375,-1.201 -0.825,-1.201 z m 2.925,-3 c 0.074,-0.225 0.074,-1.574 -0.45,-2.85 0,0 -1.2,0.15 -3,1.35 -0.375,-0.074 -0.976,-0.15 -1.65,-0.15 -0.674,0 -1.274,0.076 -1.649,0.15 -1.801,-1.199 -3,-1.35 -3,-1.35 -0.525,1.275 -0.525,2.625 -0.45,2.85 -0.451,0.6 -0.826,1.426 -0.826,2.475 0,4.65 3.9,4.727 4.875,4.727 0.225,0 0.675,0 1.125,0 0.45,0 0.9,0 1.125,0 0.975,0 4.875,-0.076 4.875,-4.727 0,-1.049 -0.375,-1.875 -0.975,-2.475 z M 63,113.25 l 0,0 c -2.475,0 -4.425,-0.301 -4.425,-2.701 0,-0.6 0.225,-1.125 0.675,-1.574 0.825,-0.75 2.175,-0.375 3.675,-0.375 l 0,0 0,0 c 1.575,0 2.925,-0.375 3.675,0.375 0.45,0.449 0.676,0.975 0.676,1.574 0.149,2.4 -1.801,2.701 -4.276,2.701 z m -2.1,-3.676 c -0.45,0 -0.825,0.525 -0.825,1.201 0,0.674 0.375,1.199 0.825,1.199 0.449,0 0.824,-0.525 0.824,-1.199 0.076,-0.675 -0.299,-1.201 -0.824,-1.201 z" /><path
     style="fill:#ffffff"
     inkscape:connector-curvature="0"
     id="path4869"
     d="m 135.324,105.6 c -0.148,-1.275 -1.049,-2.25 -1.875,-2.25 -0.824,0 -1.5,0.975 -1.35,2.176 0.15,1.273 1.051,2.25 1.875,2.324 0.827,0 1.426,-1.051 1.35,-2.25 z m -1.424,4.65 c -1.35,0 -2.551,0.824 -2.551,1.949 0,1.125 0.975,1.951 2.25,1.951 1.875,0 2.551,-0.826 2.551,-1.951 0,-0.15 0,-0.225 -0.076,-0.375 -0.148,-0.6 -0.674,-0.9 -1.35,-1.424 -0.224,-0.076 -0.525,-0.15 -0.824,-0.15 z m 1.5,-6.9 c 0.75,0.301 1.125,1.199 1.125,2.176 0,0.75 -0.451,1.424 -0.975,1.949 -0.525,0.449 -0.676,0.676 -0.676,1.051 0,0.375 0.6,0.898 0.9,1.125 0.9,0.75 1.199,1.35 1.199,2.398 0,1.352 -1.199,2.701 -3.375,2.701 -1.949,0 -3.525,-0.826 -3.525,-2.176 0,-1.35 1.5,-2.699 3.375,-2.699 l 0.602,0 c -0.227,-0.301 -0.451,-0.6 -0.451,-1.051 0,-0.225 0.076,-0.449 0.15,-0.75 -0.15,0 -0.225,0 -0.301,0 -1.574,0 -2.625,-1.199 -2.625,-2.699 0,-1.426 1.426,-2.701 3,-2.701 l 3.451,0 -0.75,0.602 -1.124,0 0,0.074 z m 5.85,2.4 -1.5,0 0,1.5 -0.75,0 0,-1.5 -1.5,0 0,-0.75 1.5,0 0,-1.5 0.75,0 0,1.5 1.5,0 0,0.75 z" /><path
     style="fill:#ffffff"
     inkscape:connector-curvature="0"
     id="path4871"
     d="m 183.176,110.699 c -0.301,1.65 -0.676,3.225 -1.875,4.051 -0.375,-2.475 0.523,-4.35 0.898,-6.375 -0.674,-1.125 0.076,-3.451 1.5,-2.926 1.801,0.676 -1.574,4.275 0.676,4.725 2.324,0.451 3.301,-4.049 1.875,-5.549 -2.1,-2.1 -6.074,-0.076 -5.625,3 0.15,0.75 0.9,0.975 0.301,2.025 -1.352,-0.301 -1.727,-1.352 -1.65,-2.775 0.074,-2.326 2.1,-3.9 4.049,-4.125 2.551,-0.301 4.875,0.9 5.25,3.299 0.375,2.701 -1.125,5.551 -3.824,5.4 -0.677,-0.074 -0.976,-0.449 -1.575,-0.75 z" /><path
     style="fill:#383838"
     inkscape:connector-curvature="0"
     id="path4873"
     d="m 46,129 c -0.45,0.225 -0.9,0.301 -1.425,0.375 0.524,-0.301 0.899,-0.75 1.05,-1.35 -0.45,0.299 -0.975,0.449 -1.575,0.6 -0.45,-0.449 -1.125,-0.75 -1.8,-0.75 -1.35,0 -2.475,1.125 -2.475,2.475 0,0.225 0,0.375 0.074,0.525 -2.024,-0.074 -3.824,-1.051 -5.1,-2.551 -0.225,0.375 -0.3,0.75 -0.3,1.275 0,0.826 0.45,1.576 1.125,2.025 -0.375,0 -0.75,-0.15 -1.125,-0.301 l 0,0 c 0,1.201 0.825,2.176 1.95,2.4 -0.301,0.225 -0.75,0.225 -1.125,0 0.3,0.975 1.199,1.725 2.324,1.725 -0.824,0.676 -1.875,1.051 -3.074,1.051 -0.226,0 -0.375,0 -0.601,0 1.125,0.676 2.4,1.125 3.75,1.125 4.5,0 6.976,-3.75 6.976,-6.975 0,-0.076 0,-0.225 0,-0.301 C 45.25,129.975 45.7,129.525 46,129 Z" /><path
     style="fill:#383838"
     inkscape:connector-curvature="0"
     id="path4875"
     d="m 86.5,132.75 0,6 2.25,0 0,-6 1.5,0 0.75,-2.25 -2.25,0 c 0,0 0,-0.375 0,-0.975 0,-0.225 0.15,-0.525 0.525,-0.525 0.75,0 2.175,0 1.725,0 l 0,-2.25 c 0,0 -1.2,0 -2.475,0 -1.275,0 -2.025,0.975 -2.025,2.1 0,1.125 0,1.725 0,1.725 l -1.5,0 0,2.25 1.5,-0.075 0,0 z" /><path
     style="fill:#383838"
     inkscape:connector-curvature="0"
     id="path4879"
     d="m 154.5,135.75 c -0.824,0 -1.5,0.676 -1.5,1.5 0,0.824 0.676,1.5 1.5,1.5 0.824,0 1.5,-0.676 1.5,-1.5 0.074,-0.75 -0.676,-1.5 -1.5,-1.5 z m -1.5,-4.949 0,2.324 c 3.15,0 5.625,2.699 5.625,5.625 l 2.324,0 c 0,-4.35 -3.599,-7.949 -7.949,-7.949 z m 0,-4.051 0,2.324 c 5.324,0 9.676,4.352 9.676,9.676 l 2.324,0 c 0,-6.6 -5.4,-12 -12,-12 z" /><path
     style="fill:#383838"
     inkscape:connector-curvature="0"
     id="path4881"
     d="m 65.1,133.574 c -0.449,0 -0.824,0.525 -0.824,1.201 0,0.674 0.375,1.199 0.824,1.199 0.45,0 0.825,-0.525 0.825,-1.199 0,-0.675 -0.375,-1.201 -0.825,-1.201 z m 2.925,-3 c 0.074,-0.225 0.074,-1.574 -0.45,-2.85 0,0 -1.2,0.15 -3,1.35 -0.375,-0.074 -0.976,-0.148 -1.65,-0.148 -0.674,0 -1.274,0.074 -1.649,0.148 -1.801,-1.199 -3,-1.35 -3,-1.35 -0.525,1.275 -0.525,2.625 -0.45,2.85 C 57.375,131.176 57,132 57,133.051 c 0,4.648 3.9,4.725 4.875,4.725 0.225,0 0.675,0 1.125,0 0.45,0 0.9,0 1.125,0 0.975,0 4.875,-0.076 4.875,-4.725 0,-1.051 -0.375,-1.875 -0.975,-2.477 z M 63,137.25 l 0,0 c -2.475,0 -4.425,-0.301 -4.425,-2.699 0,-0.602 0.225,-1.125 0.675,-1.576 0.825,-0.75 2.175,-0.375 3.675,-0.375 l 0,0 0,0 c 1.575,0 2.925,-0.375 3.675,0.375 0.45,0.451 0.676,0.975 0.676,1.576 0.149,2.398 -1.801,2.699 -4.276,2.699 z m -2.1,-3.676 c -0.45,0 -0.825,0.525 -0.825,1.201 0,0.674 0.375,1.199 0.825,1.199 0.449,0 0.824,-0.525 0.824,-1.199 0.076,-0.675 -0.299,-1.201 -0.824,-1.201 z" /><path
     style="fill:#383838"
     inkscape:connector-curvature="0"
     id="path4883"
     d="m 135.324,129.6 c -0.148,-1.275 -1.049,-2.25 -1.875,-2.25 -0.824,0 -1.5,0.975 -1.35,2.176 0.15,1.275 1.051,2.25 1.875,2.324 0.827,0 1.426,-1.049 1.35,-2.25 z m -1.424,4.65 c -1.35,0 -2.551,0.824 -2.551,1.949 0,1.051 0.975,1.951 2.25,1.951 1.875,0 2.551,-0.826 2.551,-1.951 0,-0.148 0,-0.225 -0.076,-0.375 -0.148,-0.6 -0.674,-0.898 -1.35,-1.424 -0.224,-0.076 -0.525,-0.15 -0.824,-0.15 z m 1.5,-6.9 c 0.75,0.301 1.125,1.201 1.125,2.176 0,0.75 -0.451,1.424 -0.975,1.949 -0.525,0.451 -0.676,0.676 -0.676,1.051 0,0.375 0.6,0.9 0.9,1.125 0.9,0.75 1.199,1.35 1.199,2.4 0,1.35 -1.199,2.699 -3.375,2.699 -1.949,0 -3.525,-0.824 -3.525,-2.176 0,-1.35 1.5,-2.699 3.375,-2.699 l 0.602,0 c -0.227,-0.301 -0.451,-0.6 -0.451,-1.051 0,-0.225 0.076,-0.449 0.15,-0.75 -0.15,0 -0.225,0 -0.301,0 -1.574,0 -2.625,-1.199 -2.625,-2.699 0,-1.426 1.426,-2.699 3,-2.699 l 3.451,0 -0.75,0.6 -1.124,0 0,0.074 z m 5.85,2.4 -1.5,0 0,1.5 -0.75,0 0,-1.5 -1.5,0 0,-0.75 1.5,0 0,-1.5 0.75,0 0,1.5 1.5,0 0,0.75 z" /><path
     style="fill:#383838"
     inkscape:connector-curvature="0"
     id="path4885"
     d="m 183.176,134.699 c -0.301,1.65 -0.676,3.227 -1.875,4.051 -0.375,-2.475 0.523,-4.35 0.898,-6.375 -0.674,-1.125 0.076,-3.449 1.5,-2.926 1.801,0.676 -1.574,4.275 0.676,4.727 2.324,0.449 3.301,-4.051 1.875,-5.551 -2.1,-2.1 -6.074,-0.074 -5.625,3 0.15,0.75 0.9,0.975 0.301,2.025 -1.352,-0.301 -1.727,-1.35 -1.65,-2.775 0.074,-2.324 2.1,-3.9 4.049,-4.125 2.551,-0.301 4.875,0.9 5.25,3.301 0.375,2.699 -1.125,5.549 -3.824,5.398 -0.677,-0.074 -0.976,-0.449 -1.575,-0.75 z" /><g
     style="fill:#ffffff;fill-opacity:1"
     id="g5459"
     transform="matrix(0.1229735,0,0,0.12869047,103.12957,100.51375)"><rect
       style="fill:#ffffff;fill-opacity:1"
       id="rect5461"
       y="47.708"
       x="16.452"
       width="20.914"
       height="62.915001" /><path
       style="fill:#ffffff;fill-opacity:1"
       id="path5463"
       d="m 27.048,17.377 c -7.155,0 -11.838,4.695 -11.838,10.868 0,6.041 4.545,10.877 11.562,10.877 l 0.141,0 c 7.293,0 11.832,-4.836 11.832,-10.877 C 38.607,22.072 34.206,17.377 27.048,17.377 Z"
       inkscape:connector-curvature="0" /><path
       style="fill:#ffffff;fill-opacity:1"
       id="path5465"
       d="m 88.706,46.229 c -11.11,0 -16.075,6.116 -18.853,10.396 l 0,0.204 -0.135,0 c 0.039,-0.064 0.096,-0.138 0.135,-0.204 l 0,-8.917 -20.916,0 c 0.279,5.904 0,62.915 0,62.915 l 20.917,0 0,-35.137 c 0,-1.884 0.141,-3.754 0.693,-5.1 1.515,-3.761 4.954,-7.65 10.734,-7.65 7.569,0 10.597,5.772 10.597,14.227 l 0,33.661 20.914,0 0,-36.079 C 112.791,55.22 102.473,46.229 88.706,46.229 Z"
       inkscape:connector-curvature="0" /></g></svg>