<?xml version="1.0" encoding="UTF-8" standalone="no"?>
<!-- Generator: Adobe Illustrator 17.1.0, SVG Export Plug-In . SVG Version: 6.00 Build 0)  -->

<svg
   xmlns:dc="http://purl.org/dc/elements/1.1/"
   xmlns:cc="http://creativecommons.org/ns#"
   xmlns:rdf="http://www.w3.org/1999/02/22-rdf-syntax-ns#"
   xmlns:svg="http://www.w3.org/2000/svg"
   xmlns="http://www.w3.org/2000/svg"
   xmlns:sodipodi="http://sodipodi.sourceforge.net/DTD/sodipodi-0.dtd"
   xmlns:inkscape="http://www.inkscape.org/namespaces/inkscape"
   version="1.1"
   id="Layer_1"
   x="0px"
   y="0px"
   width="224px"
   height="64px"
   viewBox="0 0 224 64"
   enable-background="new 0 0 224 64"
   xml:space="preserve"
   inkscape:version="0.91 r13725"
   sodipodi:docname="socials-icons.svg"><metadata
     id="metadata35"><rdf:RDF><cc:Work
         rdf:about=""><dc:format>image/svg+xml</dc:format><dc:type
           rdf:resource="http://purl.org/dc/dcmitype/StillImage" /></cc:Work></rdf:RDF></metadata><defs
     id="defs33" /><sodipodi:namedview
     pagecolor="#ffffff"
     bordercolor="#666666"
     borderopacity="1"
     objecttolerance="10"
     gridtolerance="10"
     guidetolerance="10"
     inkscape:pageopacity="0"
     inkscape:pageshadow="2"
     inkscape:window-width="1920"
     inkscape:window-height="1011"
     id="namedview31"
     showgrid="false"
     inkscape:snap-object-midpoints="true"
     inkscape:zoom="4.7982246"
     inkscape:cx="102.21235"
     inkscape:cy="66.571828"
     inkscape:window-x="1920"
     inkscape:window-y="0"
     inkscape:window-maximized="1"
     inkscape:current-layer="Layer_1" /><g
     transform="matrix(0.16396467,0,0,0.17158729,101.5061,5.0183276)"
     id="g4258"
     style="fill:#383838;fill-opacity:1"><rect
       height="62.915001"
       width="20.914"
       x="16.452"
       y="47.708"
       id="rect4260"
       style="fill:#383838;fill-opacity:1" /><path
       inkscape:connector-curvature="0"
       d="m 27.048,17.377 c -7.155,0 -11.838,4.695 -11.838,10.868 0,6.041 4.545,10.877 11.562,10.877 l 0.141,0 c 7.293,0 11.832,-4.836 11.832,-10.877 C 38.607,22.072 34.206,17.377 27.048,17.377 Z"
       id="path4262"
       style="fill:#383838;fill-opacity:1" /><path
       inkscape:connector-curvature="0"
       d="m 88.706,46.229 c -11.11,0 -16.075,6.116 -18.853,10.396 l 0,0.204 -0.135,0 c 0.039,-0.064 0.096,-0.138 0.135,-0.204 l 0,-8.917 -20.916,0 c 0.279,5.904 0,62.915 0,62.915 l 20.917,0 0,-35.137 c 0,-1.884 0.141,-3.754 0.693,-5.1 1.515,-3.761 4.954,-7.65 10.734,-7.65 7.569,0 10.597,5.772 10.597,14.227 l 0,33.661 20.914,0 0,-36.079 C 112.791,55.22 102.473,46.229 88.706,46.229 Z"
       id="path4264"
       style="fill:#383838;fill-opacity:1" /></g><path
     fill="#383838"
     d="M24,11c-0.6,0.3-1.2,0.4-1.9,0.5c0.7-0.4,1.2-1,1.4-1.8c-0.6,0.4-1.3,0.6-2.1,0.8c-0.6-0.6-1.5-1-2.4-1  c-1.8,0-3.3,1.5-3.3,3.3c0,0.3,0,0.5,0.1,0.7c-2.7-0.1-5.1-1.4-6.8-3.4c-0.3,0.5-0.4,1-0.4,1.7c0,1.1,0.6,2.1,1.5,2.7  c-0.5,0-1-0.2-1.5-0.4l0,0c0,1.6,1.1,2.9,2.6,3.2c-0.4,0.3-1,0.3-1.5,0c0.4,1.3,1.6,2.3,3.1,2.3c-1.1,0.9-2.5,1.4-4.1,1.4  c-0.3,0-0.5,0-0.8,0c1.5,0.9,3.2,1.5,5,1.5c6,0,9.3-5,9.3-9.3c0-0.1,0-0.3,0-0.4C23,12.3,23.6,11.7,24,11z"
     id="path3" /><path
     fill="#383838"
     d="M78,16v8h3v-8h2l1-3h-3c0,0,0-0.5,0-1.3c0-0.3,0.2-0.7,0.7-0.7c1,0,2.9,0,2.3,0V8c0,0-1.6,0-3.3,0  C79,8,78,9.3,78,10.8s0,2.3,0,2.3h-2v3h2V16z"
     id="path5" /><path
     fill="#383838"
     d="M170,20c-1.1,0-2,0.9-2,2c0,1.1,0.9,2,2,2c1.1,0,2-0.9,2-2C172.1,21,171.1,20,170,20z M168,13.4v3.1  c4.2,0,7.5,3.6,7.5,7.5h3.1C178.6,18.2,173.8,13.4,168,13.4z M168,8v3.1c7.1,0,12.9,5.8,12.9,12.9h3.1C184,15.2,176.8,8,168,8z"
     id="path9" /><path
     fill="#383838"
     d="M50.8,17.1c-0.6,0-1.1,0.7-1.1,1.6c0,0.9,0.5,1.6,1.1,1.6c0.6,0,1.1-0.7,1.1-1.6  C51.9,17.8,51.4,17.1,50.8,17.1z M54.7,13.1c0.1-0.3,0.1-2.1-0.6-3.8c0,0-1.6,0.2-4,1.8c-0.5-0.1-1.3-0.2-2.2-0.2s-1.7,0.1-2.2,0.2  c-2.4-1.6-4-1.8-4-1.8c-0.7,1.7-0.7,3.5-0.6,3.8C40.5,13.9,40,15,40,16.4c0,6.2,5.2,6.3,6.5,6.3c0.3,0,0.9,0,1.5,0  c0.6,0,1.2,0,1.5,0c1.3,0,6.5-0.1,6.5-6.3C56,15,55.5,13.9,54.7,13.1z M48,22L48,22c-3.3,0-5.9-0.4-5.9-3.6c0-0.8,0.3-1.5,0.9-2.1  c1.1-1,2.9-0.5,4.9-0.5c0,0,0,0,0,0c0,0,0,0,0,0c2.1,0,3.9-0.5,4.9,0.5c0.6,0.6,0.9,1.3,0.9,2.1C53.9,21.6,51.3,22,48,22z   M45.2,17.1c-0.6,0-1.1,0.7-1.1,1.6c0,0.9,0.5,1.6,1.1,1.6c0.6,0,1.1-0.7,1.1-1.6C46.4,17.8,45.9,17.1,45.2,17.1z"
     id="path11" /><path
     fill="#383838"
     d="M143.1,11.8c-0.2-1.7-1.4-3-2.5-3s-2,1.3-1.8,2.9c0.2,1.7,1.4,3,2.5,3.1C142.4,14.8,143.2,13.4,143.1,11.8z   M141.2,18c-1.8,0-3.4,1.1-3.4,2.6s1.3,2.6,3,2.6c2.5,0,3.4-1.1,3.4-2.6c0-0.2,0-0.3-0.1-0.5c-0.2-0.8-0.9-1.2-1.8-1.9  C142,18.1,141.6,18,141.2,18z M143.2,8.8c1,0.4,1.5,1.6,1.5,2.9c0,1-0.6,1.9-1.3,2.6c-0.7,0.6-0.9,0.9-0.9,1.4  c0,0.5,0.8,1.2,1.2,1.5c1.2,1,1.6,1.8,1.6,3.2c0,1.8-1.6,3.6-4.5,3.6c-2.6,0-4.7-1.1-4.7-2.9c0-1.8,2-3.6,4.5-3.6h0.8  c-0.3-0.4-0.6-0.8-0.6-1.4c0-0.3,0.1-0.6,0.2-1c-0.2,0-0.3,0-0.4,0c-2.1,0-3.5-1.6-3.5-3.6c0-1.9,1.9-3.6,4-3.6h4.6l-1,0.8H143.2  L143.2,8.8z M151,12h-2v2h-1v-2h-2v-1h2V9h1v2h2V12z"
     id="path13" /><path
     fill="#383838"
     d="M206.9,18.6c-0.4,2.2-0.9,4.3-2.5,5.4c-0.5-3.3,0.7-5.8,1.2-8.5c-0.9-1.5,0.1-4.6,2-3.9  c2.4,0.9-2.1,5.7,0.9,6.3c3.1,0.6,4.4-5.4,2.5-7.4c-2.8-2.8-8.1-0.1-7.5,4c0.2,1,1.2,1.3,0.4,2.7c-1.8-0.4-2.3-1.8-2.2-3.7  c0.1-3.1,2.8-5.2,5.4-5.5c3.4-0.4,6.5,1.2,7,4.4c0.5,3.6-1.5,7.4-5.1,7.2C208.1,19.5,207.7,19,206.9,18.6z"
     id="path15" /><path
     fill="#FFFFFF"
     d="M24,43c-0.6,0.3-1.2,0.4-1.9,0.5c0.7-0.4,1.2-1,1.4-1.8c-0.6,0.4-1.3,0.6-2.1,0.8c-0.6-0.6-1.5-1-2.4-1  c-1.8,0-3.3,1.5-3.3,3.3c0,0.3,0,0.5,0.1,0.7c-2.7-0.1-5.1-1.4-6.8-3.4c-0.3,0.5-0.4,1-0.4,1.7c0,1.1,0.6,2.1,1.5,2.7  c-0.5,0-1-0.2-1.5-0.4l0,0c0,1.6,1.1,2.9,2.6,3.2c-0.4,0.3-1,0.3-1.5,0c0.4,1.3,1.6,2.3,3.1,2.3c-1.1,0.9-2.5,1.4-4.1,1.4  c-0.3,0-0.5,0-0.8,0c1.5,0.9,3.2,1.5,5,1.5c6,0,9.3-5,9.3-9.3c0-0.1,0-0.3,0-0.4C23,44.3,23.6,43.7,24,43z"
     id="path17" /><path
     fill="#FFFFFF"
     d="M78,48v8h3v-8h2l1-3h-3c0,0,0-0.5,0-1.3c0-0.3,0.2-0.7,0.7-0.7c1,0,2.9,0,2.3,0v-3c0,0-1.6,0-3.3,0  C79,40,78,41.3,78,42.8s0,2.3,0,2.3h-2v3L78,48L78,48z"
     id="path19" /><path
     fill="#FFFFFF"
     d="M170,52c-1.1,0-2,0.9-2,2c0,1.1,0.9,2,2,2c1.1,0,2-0.9,2-2C172.1,53,171.1,52,170,52z M168,45.4v3.1  c4.2,0,7.5,3.6,7.5,7.5h3.1C178.6,50.2,173.8,45.4,168,45.4z M168,40v3.1c7.1,0,12.9,5.8,12.9,12.9h3.1C184,47.2,176.8,40,168,40z"
     id="path23" /><path
     fill="#FFFFFF"
     d="M50.8,49.1c-0.6,0-1.1,0.7-1.1,1.6c0,0.9,0.5,1.6,1.1,1.6c0.6,0,1.1-0.7,1.1-1.6  C51.9,49.8,51.4,49.1,50.8,49.1z M54.7,45.1c0.1-0.3,0.1-2.1-0.6-3.8c0,0-1.6,0.2-4,1.8c-0.5-0.1-1.3-0.2-2.2-0.2s-1.7,0.1-2.2,0.2  c-2.4-1.6-4-1.8-4-1.8c-0.7,1.7-0.7,3.5-0.6,3.8C40.5,45.9,40,47,40,48.4c0,6.2,5.2,6.3,6.5,6.3c0.3,0,0.9,0,1.5,0  c0.6,0,1.2,0,1.5,0c1.3,0,6.5-0.1,6.5-6.3C56,47,55.5,45.9,54.7,45.1z M48,54L48,54c-3.3,0-5.9-0.4-5.9-3.6c0-0.8,0.3-1.5,0.9-2.1  c1.1-1,2.9-0.5,4.9-0.5c0,0,0,0,0,0c0,0,0,0,0,0c2.1,0,3.9-0.5,4.9,0.5c0.6,0.6,0.9,1.3,0.9,2.1C53.9,53.6,51.3,54,48,54z   M45.2,49.1c-0.6,0-1.1,0.7-1.1,1.6c0,0.9,0.5,1.6,1.1,1.6c0.6,0,1.1-0.7,1.1-1.6C46.4,49.8,45.9,49.1,45.2,49.1z"
     id="path25" /><path
     fill="#FFFFFF"
     d="M143.1,43.8c-0.2-1.7-1.4-3-2.5-3s-2,1.3-1.8,2.9c0.2,1.7,1.4,3,2.5,3.1C142.4,46.8,143.2,45.4,143.1,43.8z   M141.2,50c-1.8,0-3.4,1.1-3.4,2.6c0,1.4,1.3,2.6,3,2.6c2.5,0,3.4-1.1,3.4-2.6c0-0.2,0-0.3-0.1-0.5c-0.2-0.8-0.9-1.2-1.8-1.9  C142,50.1,141.6,50,141.2,50z M143.2,40.8c1,0.4,1.5,1.6,1.5,2.9c0,1-0.6,1.9-1.3,2.6c-0.7,0.6-0.9,0.9-0.9,1.4  c0,0.5,0.8,1.2,1.2,1.5c1.2,1,1.6,1.8,1.6,3.2c0,1.8-1.6,3.6-4.5,3.6c-2.6,0-4.7-1.1-4.7-2.9c0-1.8,2-3.6,4.5-3.6h0.8  c-0.3-0.4-0.6-0.8-0.6-1.4c0-0.3,0.1-0.6,0.2-1c-0.2,0-0.3,0-0.4,0c-2.1,0-3.5-1.6-3.5-3.6c0-1.9,1.9-3.6,4-3.6h4.6l-1,0.8H143.2  L143.2,40.8z M151,44h-2v2h-1v-2h-2v-1h2v-2h1v2h2V44z"
     id="path27" /><path
     fill="#FFFFFF"
     d="M206.9,50.6c-0.4,2.2-0.9,4.3-2.5,5.4c-0.5-3.3,0.7-5.8,1.2-8.5c-0.9-1.5,0.1-4.6,2-3.9  c2.4,0.9-2.1,5.7,0.9,6.3c3.1,0.6,4.4-5.4,2.5-7.4c-2.8-2.8-8.1-0.1-7.5,4c0.2,1,1.2,1.3,0.4,2.7c-1.8-0.4-2.3-1.8-2.2-3.7  c0.1-3.1,2.8-5.2,5.4-5.5c3.4-0.4,6.5,1.2,7,4.4c0.5,3.6-1.5,7.4-5.1,7.2C208.1,51.5,207.7,51,206.9,50.6z"
     id="path29" /><g
     style="fill:#ffffff;fill-opacity:1"
     id="g4836"
     transform="matrix(0.16396467,0,0,0.17158729,101.5061,37.018328)"><rect
       style="fill:#ffffff;fill-opacity:1"
       id="rect4838"
       y="47.708"
       x="16.452"
       width="20.914"
       height="62.915001" /><path
       style="fill:#ffffff;fill-opacity:1"
       id="path4840"
       d="m 27.048,17.377 c -7.155,0 -11.838,4.695 -11.838,10.868 0,6.041 4.545,10.877 11.562,10.877 l 0.141,0 c 7.293,0 11.832,-4.836 11.832,-10.877 C 38.607,22.072 34.206,17.377 27.048,17.377 Z"
       inkscape:connector-curvature="0" /><path
       style="fill:#ffffff;fill-opacity:1"
       id="path4842"
       d="m 88.706,46.229 c -11.11,0 -16.075,6.116 -18.853,10.396 l 0,0.204 -0.135,0 c 0.039,-0.064 0.096,-0.138 0.135,-0.204 l 0,-8.917 -20.916,0 c 0.279,5.904 0,62.915 0,62.915 l 20.917,0 0,-35.137 c 0,-1.884 0.141,-3.754 0.693,-5.1 1.515,-3.761 4.954,-7.65 10.734,-7.65 7.569,0 10.597,5.772 10.597,14.227 l 0,33.661 20.914,0 0,-36.079 C 112.791,55.22 102.473,46.229 88.706,46.229 Z"
       inkscape:connector-curvature="0" /></g></svg>