<?xml version="1.0" encoding="UTF-8" standalone="no"?>
<!-- Created with Inkscape (http://www.inkscape.org/) -->

<svg
   xmlns:dc="http://purl.org/dc/elements/1.1/"
   xmlns:cc="http://creativecommons.org/ns#"
   xmlns:rdf="http://www.w3.org/1999/02/22-rdf-syntax-ns#"
   xmlns:svg="http://www.w3.org/2000/svg"
   xmlns="http://www.w3.org/2000/svg"
   xmlns:sodipodi="http://sodipodi.sourceforge.net/DTD/sodipodi-0.dtd"
   xmlns:inkscape="http://www.inkscape.org/namespaces/inkscape"
   width="33.866669mm"
   height="29.322403mm"
   viewBox="0 0 120.00001 103.89828"
   id="svg2"
   version="1.1"
   inkscape:version="0.91 r13725"
   inkscape:export-filename="moebius.png"
   inkscape:export-xdpi="90"
   inkscape:export-ydpi="90"
   sodipodi:docname="moebius.svg">
  <defs
     id="defs4" />
  <sodipodi:namedview
     id="base"
     pagecolor="#ffffff"
     bordercolor="#666666"
     borderopacity="1.0"
     inkscape:pageopacity="0.0"
     inkscape:pageshadow="2"
     inkscape:zoom="1.979899"
     inkscape:cx="56.127651"
     inkscape:cy="81.517121"
     inkscape:document-units="px"
     inkscape:current-layer="layer1"
     showgrid="false"
     inkscape:snap-bbox="false"
     inkscape:bbox-paths="false"
     inkscape:object-paths="false"
     inkscape:snap-nodes="true"
     fit-margin-top="0"
     fit-margin-left="0"
     fit-margin-right="0"
     fit-margin-bottom="0"
     inkscape:window-width="1920"
     inkscape:window-height="1011"
     inkscape:window-x="1920"
     inkscape:window-y="0"
     inkscape:window-maximized="1" />
  <metadata
     id="metadata7">
    <rdf:RDF>
      <cc:Work
         rdf:about="">
        <dc:format>image/svg+xml</dc:format>
        <dc:type
           rdf:resource="http://purl.org/dc/dcmitype/StillImage" />
        <dc:title></dc:title>
      </cc:Work>
    </rdf:RDF>
  </metadata>
  <g
     inkscape:label="Layer 1"
     inkscape:groupmode="layer"
     id="layer1"
     transform="translate(742.55408,-427.92361)">
    <path
       style="fill:#004263;fill-opacity:1;fill-rule:evenodd;stroke:#000000;stroke-width:0.68916816px;stroke-linecap:butt;stroke-linejoin:miter;stroke-opacity:1"
       d="m -741.79454,381.40407 c 0.7171,3.11536 1.06134,8.76406 1.9109,12.06706 1.87154,7.27654 2.18952,11.51846 9.0537,19.95654 11.25102,12.37732 23.99162,21.0119 34.02506,26.54128 6.12898,4.59468 44.09596,19.1617 63.6991,20.53686 30.96768,2.1724 34.54898,1.96002 49.34068,1.2183 13.52558,-1.28328 28.22734,-4.99482 38.28908,-10.44248 11.52832,-6.8551 17.85752,-10.92194 18.9705,-23.40854 l 23.58258,0.087 c -2.64114,38.62116 -25.34368,60.26686 -54.73596,80.40704 -27.57052,15.72766 -52.00528,21.22286 -75.18582,22.62536 -17.44484,0.91538 -27.32816,0.5018 -38.28908,-0.95722 -31.48554,-5.16062 -43.22682,-14.46076 -44.90264,-15.75074 -11.92064,-8.4905 -15.7305,-13.8268 -19.49262,-19.14452 -4.37532,-7.8629 -5.27942,-12.94882 -6.26548,-18.1003 z"
       id="path6004"
       inkscape:connector-curvature="0"
       sodipodi:nodetypes="csccsccccccccccc"
       inkscape:export-xdpi="90"
       inkscape:export-ydpi="90" />
    <path
       style="fill:#b3b3b3;fill-rule:evenodd;stroke:#000000;stroke-width:0.68916816px;stroke-linecap:butt;stroke-linejoin:miter;stroke-opacity:1"
       d="m -742.20542,381.32655 c 1.18922,-7.3454 2.85432,-14.35262 7.13782,-21.65956 5.25416,-7.55984 12.3774,-13.96218 19.19826,-18.45986 15.14328,-9.25032 32.60666,-17.81122 82.88104,-16.74782 27.5286,2.18994 56.22702,8.39074 90.57638,33.96614 22.80666,20.68434 38.15858,40.7274 39.45314,69.40908 l -23.51174,0.0734 c -2.16752,-22.3155 -40.11246,-30.64556 -57.41454,-33.54726 -47.95938,-5.76078 -99.7045,9.85878 -131.24588,33.23862 -6.47274,-4.43506 -11.20936,-9.80496 -16.24468,-15.01402 -7.73004,-8.46794 -9.16184,-19.91924 -10.8298,-31.2587 z"
       id="path6006"
       inkscape:connector-curvature="0"
       sodipodi:nodetypes="ccccccccccc"
       inkscape:export-xdpi="90"
       inkscape:export-ydpi="90" />
  </g>
</svg>
